<svg width="246" height="246" viewBox="0 0 246 246" fill="none" xmlns="http://www.w3.org/2000/svg">
<path d="M244.85 123.146C244.85 90.8437 232.018 59.8645 209.177 37.0233C186.335 14.1821 155.356 1.35005 123.054 1.34997C90.7515 1.35004 59.7722 14.1821 36.931 37.0233C14.0898 59.8645 1.25774 90.8437 1.25766 123.146C1.25774 155.448 14.0898 186.428 36.931 209.269C59.7722 232.11 90.7515 244.942 123.054 244.942C155.356 244.942 186.335 232.11 209.177 209.269C232.018 186.428 244.85 155.448 244.85 123.146ZM223.647 123.146C223.647 149.825 213.049 175.411 194.184 194.276C175.319 213.141 149.733 223.739 123.054 223.739C96.3748 223.739 70.7885 213.141 51.9236 194.276C33.0587 175.411 22.4605 149.825 22.4605 123.146C22.4605 96.4671 33.0587 70.8808 51.9236 52.0159C70.7885 33.151 96.3748 22.5528 123.054 22.5528C149.733 22.5528 175.319 33.151 194.184 52.0159C213.049 70.8808 223.647 96.4671 223.647 123.146Z" fill="#919191" stroke="#919191"/>
<path fill-rule="evenodd" clip-rule="evenodd" d="M122.627 213.106L136.085 136.842L122.627 123.384L122.627 213.106Z" fill="#4D4D4D" stroke="#4D4D4D"/>
<path fill-rule="evenodd" clip-rule="evenodd" d="M122.643 213.106L109.185 136.842L122.643 123.383L122.643 213.106Z" fill="#EDF200" stroke="#EDF200"/>
<path fill-rule="evenodd" clip-rule="evenodd" d="M122.643 33.158L109.185 109.422L122.643 122.881L122.643 33.158V33.158Z" fill="#4D4D4D" stroke="#4D4D4D"/>
<path fill-rule="evenodd" clip-rule="evenodd" d="M122.627 33.1578L136.085 109.422L122.627 122.881L122.627 78.0192L122.627 33.1578Z" fill="#EDF200" stroke="#EDF200"/>
<path fill-rule="evenodd" clip-rule="evenodd" d="M32.6608 123.124L108.925 136.582L122.384 123.124L32.6608 123.124Z" fill="#4D4D4D" stroke="#4D4D4D"/>
<path fill-rule="evenodd" clip-rule="evenodd" d="M32.6608 123.14L108.925 109.682L122.384 123.141L32.6608 123.14Z" fill="#EDF200" stroke="#EDF200"/>
<path fill-rule="evenodd" clip-rule="evenodd" d="M212.608 123.141L136.344 109.682L122.886 123.141L212.608 123.141V123.141Z" fill="#4D4D4D" stroke="#4D4D4D"/>
<path fill-rule="evenodd" clip-rule="evenodd" d="M212.609 123.123L136.344 136.582L122.886 123.123L212.609 123.123V123.123Z" fill="#EDF200" stroke="#EDF200"/>
<path fill-rule="evenodd" clip-rule="evenodd" d="M228.691 229.208L154.652 123.438L122.921 123.438L228.691 229.208Z" fill="#4D4D4D" stroke="#4D4D4D"/>
<path fill-rule="evenodd" clip-rule="evenodd" d="M228.711 229.188L122.941 155.149L122.941 123.418L228.711 229.188Z" fill="#EDF200" stroke="#EDF200"/>
<path fill-rule="evenodd" clip-rule="evenodd" d="M16.5788 17.056L90.6176 122.826L122.349 122.826L16.5788 17.056V17.056Z" fill="#4D4D4D" stroke="#4D4D4D"/>
<path fill-rule="evenodd" clip-rule="evenodd" d="M16.5589 17.076L122.329 91.1148L122.329 122.846L16.5589 17.076Z" fill="#EDF200" stroke="#EDF200"/>
<path fill-rule="evenodd" clip-rule="evenodd" d="M16.5589 229.188L122.329 155.149L122.329 123.418L16.5589 229.188Z" fill="#4D4D4D" stroke="#4D4D4D"/>
<path fill-rule="evenodd" clip-rule="evenodd" d="M16.5787 229.208L90.6176 123.438L122.349 123.438L16.5787 229.208Z" fill="#EDF200" stroke="#EDF200"/>
<path fill-rule="evenodd" clip-rule="evenodd" d="M228.711 17.076L122.941 91.1149L122.941 122.846L228.711 17.076Z" fill="#4D4D4D" stroke="#4D4D4D"/>
<path fill-rule="evenodd" clip-rule="evenodd" d="M228.691 17.0562L154.652 122.826L122.921 122.826L228.691 17.0562Z" fill="#EDF200" stroke="#EDF200"/>
</svg>
