<svg width="1979" height="292" viewBox="0 0 1979 292" fill="none" xmlns="http://www.w3.org/2000/svg">
<path d="M338.182 240H275.245C274.554 238.964 274.209 237.583 274.209 235.856C274.209 233.957 274.813 232.23 276.022 230.676L293.375 228.604V84.859H278.353C275.59 84.859 274.209 83.6503 274.209 81.233C274.209 80.0243 274.641 77.9523 275.504 75.017L276.022 72.945H340.513C351.391 72.945 360.542 74.499 367.967 77.607C375.564 80.715 381.608 84.7727 386.097 89.78C390.759 94.7873 394.126 100.313 396.198 106.356C398.443 112.227 399.565 118.011 399.565 123.709C399.565 129.407 398.443 135.278 396.198 141.321C394.126 147.192 390.759 152.631 386.097 157.638C381.608 162.645 375.564 166.703 367.967 169.811C360.542 172.919 351.391 174.473 340.513 174.473H307.879V228.086H335.851C338.614 228.086 339.995 229.295 339.995 231.712C339.995 232.921 339.563 234.993 338.7 237.928L338.182 240ZM307.879 162.559H340.513C353.981 162.559 364.6 159.106 372.37 152.199C380.313 145.12 384.284 135.623 384.284 123.709C384.284 111.795 380.313 102.385 372.37 95.478C364.6 88.3987 353.981 84.859 340.513 84.859H307.879V162.559ZM559.91 240H509.405C508.715 238.964 508.369 237.583 508.369 235.856C508.369 233.957 508.974 232.23 510.182 230.676L527.535 228.604L510.959 185.61H440.511L424.453 228.086H439.475C442.238 228.086 443.619 229.295 443.619 231.712C443.619 232.921 443.188 234.993 442.324 237.928L441.806 240H392.078C391.388 238.964 391.042 237.583 391.042 235.856C391.042 233.957 391.647 232.23 392.855 230.676L410.208 228.604L470.814 72.427C472.541 72.0817 474.44 71.909 476.512 71.909C478.584 71.909 480.484 72.0817 482.21 72.427L542.557 228.086H557.579C560.342 228.086 561.723 229.295 561.723 231.712C561.723 232.921 561.292 234.993 560.428 237.928L559.91 240ZM506.556 173.955L475.735 92.629L444.914 173.955H506.556ZM656.952 240H591.425C590.735 238.964 590.389 237.583 590.389 235.856C590.389 233.957 590.994 232.23 592.202 230.676L617.325 228.604V84.859H570.187L563.712 113.09C562.158 114.299 560.432 114.903 558.532 114.903C556.806 114.903 555.424 114.558 554.388 113.867L554.906 79.679C556.633 77.089 558.705 74.8443 561.122 72.945H688.032C690.45 74.8443 692.522 77.089 694.248 79.679L694.766 113.867C693.73 114.558 692.349 114.903 690.622 114.903C688.723 114.903 686.996 114.299 685.442 113.09L678.967 84.859H631.829V228.086H654.621C657.384 228.086 658.765 229.295 658.765 231.712C658.765 232.921 658.334 234.993 657.47 237.928L656.952 240ZM877.638 240H827.652C826.961 238.964 826.616 237.583 826.616 235.856C826.616 233.957 827.22 232.23 828.429 230.676L845.782 228.604V160.228H752.024V228.086H767.046C769.808 228.086 771.19 229.295 771.19 231.712C771.19 232.921 770.758 234.993 769.895 237.928L769.377 240H719.39C718.699 238.964 718.354 237.583 718.354 235.856C718.354 233.957 718.958 232.23 720.167 230.676L737.52 228.604V84.859H722.498C719.735 84.859 718.354 83.6503 718.354 81.233C718.354 80.0243 718.785 77.9523 719.649 75.017L720.167 72.945H770.154C770.844 73.981 771.19 75.3623 771.19 77.089C771.19 78.9883 770.585 80.715 769.377 82.269L752.024 84.341V148.314H845.782V84.859H830.76C827.997 84.859 826.616 83.6503 826.616 81.233C826.616 80.0243 827.047 77.9523 827.911 75.017L828.429 72.945H878.416C879.106 73.981 879.452 75.3623 879.452 77.089C879.452 78.9883 878.847 80.715 877.638 82.269L860.286 84.341V228.086H875.307C878.07 228.086 879.452 229.295 879.452 231.712C879.452 232.921 879.02 234.993 878.157 237.928L877.638 240ZM967.675 179.135L907.069 184.833C906.206 182.588 905.774 180.085 905.774 177.322C905.774 174.905 906.033 172.919 906.551 171.365L967.157 165.667C968.021 167.912 968.452 170.415 968.452 173.178C968.452 175.595 968.193 177.581 967.675 179.135ZM1154.09 240H1104.1C1103.41 238.964 1103.07 237.583 1103.07 235.856C1103.07 233.957 1103.67 232.23 1104.88 230.676L1122.23 228.604V160.228H1028.48V228.086H1043.5C1046.26 228.086 1047.64 229.295 1047.64 231.712C1047.64 232.921 1047.21 234.993 1046.35 237.928L1045.83 240H995.842C995.151 238.964 994.806 237.583 994.806 235.856C994.806 233.957 995.41 232.23 996.619 230.676L1013.97 228.604V84.859H998.95C996.187 84.859 994.806 83.6503 994.806 81.233C994.806 80.0243 995.237 77.9523 996.101 75.017L996.619 72.945H1046.61C1047.3 73.981 1047.64 75.3623 1047.64 77.089C1047.64 78.9883 1047.04 80.715 1045.83 82.269L1028.48 84.341V148.314H1122.23V84.859H1107.21C1104.45 84.859 1103.07 83.6503 1103.07 81.233C1103.07 80.0243 1103.5 77.9523 1104.36 75.017L1104.88 72.945H1154.87C1155.56 73.981 1155.9 75.3623 1155.9 77.089C1155.9 78.9883 1155.3 80.715 1154.09 82.269L1136.74 84.341V228.086H1151.76C1154.52 228.086 1155.9 229.295 1155.9 231.712C1155.9 232.921 1155.47 234.993 1154.61 237.928L1154.09 240ZM1303.7 240H1183.26C1182.57 238.964 1182.23 237.583 1182.23 235.856C1182.23 233.957 1182.83 232.23 1184.04 230.676L1201.39 228.604V84.859H1186.37C1183.61 84.859 1182.23 83.6503 1182.23 81.233C1182.23 80.0243 1182.66 77.9523 1183.52 75.017L1184.04 72.945H1301.11C1303.52 74.8443 1305.6 77.089 1307.32 79.679L1307.84 113.867C1306.81 114.558 1305.42 114.903 1303.7 114.903C1301.8 114.903 1300.07 114.299 1298.52 113.09L1292.04 84.859H1215.9V148.832H1267.7L1270.03 135.105C1270.55 131.997 1272.01 130.443 1274.43 130.443C1275.12 130.443 1276.5 130.875 1278.57 131.738L1280.13 132.515V178.099C1279.09 178.79 1277.71 179.135 1275.98 179.135C1274.09 179.135 1272.36 178.531 1270.8 177.322L1267.7 160.487H1215.9V228.086H1294.63L1301.11 199.855C1302.66 198.646 1304.39 198.042 1306.29 198.042C1308.01 198.042 1309.4 198.387 1310.43 199.078L1309.91 233.266C1308.19 235.856 1306.11 238.101 1303.7 240ZM1451.51 240H1337.55C1336.86 238.964 1336.51 237.583 1336.51 235.856C1336.51 233.957 1337.12 232.23 1338.33 230.676L1355.68 228.604V84.859H1340.66C1337.89 84.859 1336.51 83.6503 1336.51 81.233C1336.51 80.0243 1336.95 77.9523 1337.81 75.017L1338.33 72.945H1390.9C1391.59 73.981 1391.94 75.3623 1391.94 77.089C1391.94 78.9883 1391.34 80.715 1390.13 82.269L1370.18 84.341V228.086H1442.44L1448.92 198.56C1450.47 197.351 1452.2 196.747 1454.1 196.747C1455.83 196.747 1457.21 197.092 1458.24 197.783L1457.73 233.266C1456 235.856 1453.93 238.101 1451.51 240ZM1543.14 240H1480.2C1479.51 238.964 1479.17 237.583 1479.17 235.856C1479.17 233.957 1479.77 232.23 1480.98 230.676L1498.33 228.604V84.859H1483.31C1480.55 84.859 1479.17 83.6503 1479.17 81.233C1479.17 80.0243 1479.6 77.9523 1480.46 75.017L1480.98 72.945H1545.47C1556.35 72.945 1565.5 74.499 1572.92 77.607C1580.52 80.715 1586.56 84.7727 1591.05 89.78C1595.72 94.7873 1599.08 100.313 1601.15 106.356C1603.4 112.227 1604.52 118.011 1604.52 123.709C1604.52 129.407 1603.4 135.278 1601.15 141.321C1599.08 147.192 1595.72 152.631 1591.05 157.638C1586.56 162.645 1580.52 166.703 1572.92 169.811C1565.5 172.919 1556.35 174.473 1545.47 174.473H1512.84V228.086H1540.81C1543.57 228.086 1544.95 229.295 1544.95 231.712C1544.95 232.921 1544.52 234.993 1543.66 237.928L1543.14 240ZM1512.84 162.559H1545.47C1558.94 162.559 1569.56 159.106 1577.33 152.199C1585.27 145.12 1589.24 135.623 1589.24 123.709C1589.24 111.795 1585.27 102.385 1577.33 95.478C1569.56 88.3987 1558.94 84.859 1545.47 84.859H1512.84V162.559ZM1747.34 240H1626.9C1626.21 238.964 1625.87 237.583 1625.87 235.856C1625.87 233.957 1626.47 232.23 1627.68 230.676L1645.03 228.604V84.859H1630.01C1627.25 84.859 1625.87 83.6503 1625.87 81.233C1625.87 80.0243 1626.3 77.9523 1627.16 75.017L1627.68 72.945H1744.75C1747.16 74.8443 1749.24 77.089 1750.96 79.679L1751.48 113.867C1750.44 114.558 1749.06 114.903 1747.34 114.903C1745.44 114.903 1743.71 114.299 1742.16 113.09L1735.68 84.859H1659.54V148.832H1711.34L1713.67 135.105C1714.18 131.997 1715.65 130.443 1718.07 130.443C1718.76 130.443 1720.14 130.875 1722.21 131.738L1723.77 132.515V178.099C1722.73 178.79 1721.35 179.135 1719.62 179.135C1717.72 179.135 1716 178.531 1714.44 177.322L1711.34 160.487H1659.54V228.086H1738.27L1744.75 199.855C1746.3 198.646 1748.03 198.042 1749.93 198.042C1751.65 198.042 1753.03 198.387 1754.07 199.078L1753.55 233.266C1751.83 235.856 1749.75 238.101 1747.34 240ZM1878.31 218.762L1849.82 169.293H1813.82V228.086H1828.84C1831.61 228.086 1832.99 229.295 1832.99 231.712C1832.99 232.921 1832.56 234.993 1831.69 237.928L1831.18 240H1781.19C1780.5 238.964 1780.15 237.583 1780.15 235.856C1780.15 233.957 1780.76 232.23 1781.97 230.676L1799.32 228.604V84.859H1784.3C1781.53 84.859 1780.15 83.6503 1780.15 81.233C1780.15 80.0243 1780.58 77.9523 1781.45 75.017L1781.97 72.945H1850.08C1859.75 72.945 1867.95 74.499 1874.69 77.607C1881.42 80.5423 1886.86 84.5137 1891 89.521C1895.15 94.3557 1898.17 99.622 1900.07 105.32C1901.97 110.845 1902.92 116.112 1902.92 121.119C1902.92 126.99 1901.62 133.206 1899.03 139.767C1896.62 146.156 1892.56 151.94 1886.86 157.12C1881.16 162.3 1873.74 165.84 1864.59 167.739L1893.08 215.136C1896.36 220.661 1899.29 224.374 1901.88 226.273C1904.47 228 1907.93 228.863 1912.24 228.863C1913.62 228.863 1915.09 228.863 1916.65 228.863C1918.37 228.69 1919.84 228.518 1921.05 228.345C1922.43 230.762 1923.21 233.957 1923.38 237.928C1917.51 240 1911.98 241.036 1906.8 241.036C1901.28 241.036 1896.27 239.309 1891.78 235.856C1887.29 232.23 1882.8 226.532 1878.31 218.762ZM1813.82 157.379H1850.08C1861.65 157.379 1870.8 153.926 1877.54 147.019C1884.27 139.94 1887.64 131.306 1887.64 121.119C1887.64 110.932 1884.27 102.385 1877.54 95.478C1870.8 88.3987 1861.65 84.859 1850.08 84.859H1813.82V157.379Z" fill="#4D4D4D"/>
<path d="M131.015 30.2191C96.4489 30.2192 63.2983 43.9506 38.8562 68.3927C14.4142 92.8348 0.682698 125.985 0.682617 160.552C0.682698 195.118 14.4142 228.269 38.8562 252.711C63.2983 277.153 96.4489 290.884 131.015 290.884C165.581 290.884 198.732 277.153 223.174 252.711C247.616 228.269 261.348 195.118 261.348 160.552C261.348 125.985 247.616 92.8348 223.174 68.3927C198.732 43.9506 165.581 30.2192 131.015 30.2191ZM131.015 52.908C159.564 52.908 186.944 64.249 207.131 84.4361C227.318 104.623 238.659 132.003 238.659 160.552C238.659 189.101 227.318 216.48 207.131 236.667C186.944 256.854 159.564 268.195 131.015 268.195C102.466 268.195 75.0867 256.854 54.8996 236.667C34.7125 216.48 23.3715 189.101 23.3715 160.552C23.3715 132.003 34.7125 104.623 54.8996 84.4361C75.0867 64.249 102.466 52.908 131.015 52.908Z" fill="#919191" stroke="#919191"/>
<path fill-rule="evenodd" clip-rule="evenodd" d="M227.28 161.009L145.671 146.607L131.269 161.009L227.28 161.009Z" fill="#4D4D4D" stroke="#4D4D4D"/>
<path fill-rule="evenodd" clip-rule="evenodd" d="M227.28 160.991L145.671 175.393L131.269 160.991L227.28 160.991Z" fill="#EDF200" stroke="#EDF200"/>
<path fill-rule="evenodd" clip-rule="evenodd" d="M34.72 160.991L116.33 175.393L130.731 160.991L34.72 160.991V160.991Z" fill="#4D4D4D" stroke="#4D4D4D"/>
<path fill-rule="evenodd" clip-rule="evenodd" d="M34.72 161.009L116.33 146.607L130.731 161.009L82.7256 161.009L34.72 161.009Z" fill="#EDF200" stroke="#EDF200"/>
<path fill-rule="evenodd" clip-rule="evenodd" d="M130.991 257.28L145.393 175.67L130.991 161.269L130.991 257.28Z" fill="#4D4D4D" stroke="#4D4D4D"/>
<path fill-rule="evenodd" clip-rule="evenodd" d="M131.009 257.28L116.607 175.67L131.009 161.269L131.009 257.28Z" fill="#EDF200" stroke="#EDF200"/>
<path fill-rule="evenodd" clip-rule="evenodd" d="M131.009 64.7198L116.608 146.329L131.009 160.731L131.009 64.7198V64.7198Z" fill="#4D4D4D" stroke="#4D4D4D"/>
<path fill-rule="evenodd" clip-rule="evenodd" d="M130.991 64.7198L145.393 146.329L130.991 160.731L130.991 64.7198V64.7198Z" fill="#EDF200" stroke="#EDF200"/>
<path fill-rule="evenodd" clip-rule="evenodd" d="M244.511 47.5107L131.328 126.739L131.328 160.694L244.511 47.5107Z" fill="#4D4D4D" stroke="#4D4D4D"/>
<path fill-rule="evenodd" clip-rule="evenodd" d="M244.489 47.4894L165.261 160.672L131.306 160.672L244.489 47.4894Z" fill="#EDF200" stroke="#EDF200"/>
<path fill-rule="evenodd" clip-rule="evenodd" d="M17.4893 274.489L130.672 195.261L130.672 161.306L17.4893 274.489V274.489Z" fill="#4D4D4D" stroke="#4D4D4D"/>
<path fill-rule="evenodd" clip-rule="evenodd" d="M17.5106 274.511L96.7387 161.328L130.694 161.328L17.5106 274.511Z" fill="#EDF200" stroke="#EDF200"/>
<path fill-rule="evenodd" clip-rule="evenodd" d="M244.489 274.511L165.261 161.328L131.306 161.328L244.489 274.511Z" fill="#4D4D4D" stroke="#4D4D4D"/>
<path fill-rule="evenodd" clip-rule="evenodd" d="M244.511 274.489L131.328 195.261L131.328 161.306L244.511 274.489Z" fill="#EDF200" stroke="#EDF200"/>
<path fill-rule="evenodd" clip-rule="evenodd" d="M17.5107 47.4894L96.7388 160.672L130.694 160.672L17.5107 47.4894Z" fill="#4D4D4D" stroke="#4D4D4D"/>
<path fill-rule="evenodd" clip-rule="evenodd" d="M17.4894 47.5106L130.672 126.739L130.672 160.694L17.4894 47.5106Z" fill="#EDF200" stroke="#EDF200"/>
</svg>
