<svg width="150" height="150" viewBox="0 0 240 240" fill="none" 
    xmlns="http://www.w3.org/2000/svg">
    <rect width="240" height="240" fill="url(#paint0_radial)"/>
    <g filter="url(#filter0_f)">
        <path d="M133.7 80L110.8 116.3L121 152H102L94.5 125.6H86.6L81.9 152H63.9L76.6 80H94.6L89.3 110H95.7L114.7 80H133.7ZM178.325 114.1C178.325 116.367 177.925 118.567 177.125 120.7C176.392 122.833 175.658 124.4 174.925 125.4L173.825 126.8H158.725C160.392 125.267 161.225 123.367 161.225 121.1C161.225 119.9 160.825 118.933 160.025 118.2C159.292 117.4 158.258 117 156.925 117C154.658 117 152.692 118.133 151.025 120.4L145.425 152H128.425L136.925 103.9H152.725L151.525 110.6C155.325 105.2 159.925 102.5 165.325 102.5C169.658 102.5 172.892 103.533 175.025 105.6C177.225 107.667 178.325 110.5 178.325 114.1Z" fill="#E2EDED" fill-opacity="0.59"/>
    </g>
    <path d="M133.7 80L110.8 116.3L121 152H102L94.5 125.6H86.6L81.9 152H63.9L76.6 80H94.6L89.3 110H95.7L114.7 80H133.7ZM178.325 114.1C178.325 116.367 177.925 118.567 177.125 120.7C176.392 122.833 175.658 124.4 174.925 125.4L173.825 126.8H158.725C160.392 125.267 161.225 123.367 161.225 121.1C161.225 119.9 160.825 118.933 160.025 118.2C159.292 117.4 158.258 117 156.925 117C154.658 117 152.692 118.133 151.025 120.4L145.425 152H128.425L136.925 103.9H152.725L151.525 110.6C155.325 105.2 159.925 102.5 165.325 102.5C169.658 102.5 172.892 103.533 175.025 105.6C177.225 107.667 178.325 110.5 178.325 114.1Z" fill="white"/>
    <path d="M18.416 211.96H19.832L26.912 229H25.136L22.928 223.672H15.272L13.088 229H11.288L18.416 211.96ZM22.544 222.352L19.112 213.928L15.632 222.352H22.544ZM32.6495 229.24C31.2895 229.24 30.2735 228.792 29.6015 227.896C28.9455 226.984 28.6175 225.632 28.6175 223.84V216.496H30.2495V223.552C30.2495 226.384 31.2175 227.8 33.1535 227.8C33.6335 227.8 34.1055 227.72 34.5695 227.56C35.0335 227.4 35.4575 227.168 35.8415 226.864C36.2415 226.56 36.5935 226.2 36.8975 225.784C37.2175 225.368 37.4735 224.896 37.6655 224.368V216.496H39.2975V226.888C39.2975 227.336 39.4895 227.56 39.8735 227.56V229C39.6815 229.032 39.5215 229.048 39.3935 229.048C39.2815 229.048 39.2015 229.048 39.1535 229.048C38.7695 229.032 38.4575 228.896 38.2175 228.64C37.9775 228.384 37.8575 228.04 37.8575 227.608V226.168C37.3135 227.144 36.5695 227.904 35.6255 228.448C34.6975 228.976 33.7055 229.24 32.6495 229.24ZM48.9875 228.4C48.8915 228.448 48.7475 228.512 48.5555 228.592C48.3795 228.672 48.1715 228.752 47.9315 228.832C47.6915 228.912 47.4195 228.984 47.1155 229.048C46.8115 229.112 46.4915 229.144 46.1555 229.144C45.8035 229.144 45.4675 229.096 45.1475 229C44.8275 228.904 44.5475 228.76 44.3075 228.568C44.0675 228.36 43.8755 228.104 43.7315 227.8C43.5875 227.496 43.5155 227.144 43.5155 226.744V217.792H41.7875V216.496H43.5155V212.272H45.1475V216.496H48.0275V217.792H45.1475V226.288C45.1795 226.752 45.3395 227.096 45.6275 227.32C45.9315 227.528 46.2755 227.632 46.6595 227.632C47.1235 227.632 47.5315 227.56 47.8835 227.416C48.2355 227.256 48.4595 227.144 48.5555 227.08L48.9875 228.4ZM61.5386 229H59.9066V222.016C59.9066 220.592 59.6586 219.528 59.1626 218.824C58.6826 218.12 57.9706 217.768 57.0266 217.768C56.5626 217.768 56.0986 217.864 55.6346 218.056C55.1866 218.232 54.7626 218.48 54.3626 218.8C53.9626 219.12 53.6106 219.496 53.3066 219.928C53.0186 220.36 52.8026 220.832 52.6586 221.344V229H51.0266V211.48H52.6586V219.328C53.1546 218.384 53.8426 217.64 54.7226 217.096C55.6026 216.552 56.5546 216.28 57.5786 216.28C58.2986 216.28 58.9066 216.416 59.4026 216.688C59.8986 216.944 60.3066 217.312 60.6266 217.792C60.9466 218.256 61.1786 218.824 61.3226 219.496C61.4666 220.152 61.5386 220.88 61.5386 221.68V229Z" fill="white"/>
    <defs>
        <filter id="filter0_f" x="58.9" y="75" width="124.425" height="82" filterUnits="userSpaceOnUse" color-interpolation-filters="sRGB">
            <feFlood flood-opacity="0" result="BackgroundImageFix"/>
            <feBlend mode="normal" in="SourceGraphic" in2="BackgroundImageFix" result="shape"/>
            <feGaussianBlur stdDeviation="2.5" result="effect1_foregroundBlur"/>
        </filter>
        <radialGradient id="paint0_radial" cx="0" cy="0" r="1" gradientUnits="userSpaceOnUse" gradientTransform="translate(120 120) rotate(91.741) scale(164.576 167.518)">
            <stop stop-color="#4E4E4E"/>
            <stop offset="1" stop-color="#373737"/>
        </radialGradient>
    </defs>
</svg>
